<svg width="76" height="87" viewBox="0 0 76 87" fill="none" xmlns="http://www.w3.org/2000/svg">
<rect width="76" height="86.5715" rx="6" fill="white"/>
<g clip-path="url(#clip0_0_323)">
<path d="M21 36C26.5228 36 31 31.5228 31 26C31 20.4772 26.5228 16 21 16C15.4772 16 11 20.4772 11 26C11 31.5228 15.4772 36 21 36Z" fill="#FF4A00"/>
<path d="M22.25 26.0021C22.2501 26.3624 22.185 26.7197 22.058 27.0568C21.7206 27.1843 21.3629 27.2498 21.0021 27.25H20.9979C20.6376 27.25 20.2803 27.185 19.9432 27.058C19.8156 26.7206 19.7502 26.3629 19.75 26.0021V25.9979C19.75 25.6376 19.8151 25.2803 19.942 24.9432C20.2794 24.8156 20.6371 24.7502 20.9979 24.75H21.0021C21.3628 24.7499 21.7205 24.815 22.058 24.9422C22.185 25.2793 22.2501 25.6366 22.25 25.9969V26.0012V26.0021ZM25.9305 25.1666H23.0117L25.0756 23.1029C24.9135 22.8756 24.7327 22.6622 24.5352 22.4648C24.3378 22.2676 24.1244 22.0871 23.8971 21.9252L21.8334 23.9883V21.0695C21.5589 21.0234 21.2811 21.0002 21.0027 21H20.9975C20.7191 21.0002 20.4413 21.0234 20.1668 21.0695V23.9883L18.1029 21.9244C17.8756 22.0865 17.6622 22.2673 17.4648 22.4648C17.2676 22.6621 17.0872 22.8754 16.9254 23.1025L18.9883 25.1666H16.0695C16.0695 25.1666 16 25.7148 16 25.9982V26.0018C16.0001 26.2804 16.0234 26.5586 16.0695 26.8334H18.9883L16.9244 28.8971C17.249 29.3527 17.6473 29.751 18.1029 30.0756L20.1666 28.0117V30.9305C20.4408 30.9765 20.7184 30.9998 20.9965 31H21.0037C21.2817 30.9998 21.5592 30.9765 21.8334 30.9305V28.0117L23.8971 30.0756C24.1244 29.9135 24.3378 29.7327 24.5352 29.5352C24.7325 29.3378 24.9131 29.1244 25.075 28.8971L23.0117 26.8334H25.9305C25.9765 26.5592 25.9998 26.2816 26 26.0035V25.9963C25.9998 25.7183 25.9765 25.4408 25.9305 25.1666Z" fill="white"/>
</g>
<path fill-rule="evenodd" clip-rule="evenodd" d="M49 17C47.8954 17 47 17.8954 47 19V33C47 34.1046 47.8954 35 49 35H63C64.1046 35 65 34.1046 65 33V19C65 17.8954 64.1046 17 63 17L49 17Z" fill="white"/>
<path fill-rule="evenodd" clip-rule="evenodd" d="M49 17C47.8954 17 47 17.8954 47 19V33C47 34.1046 47.8954 35 49 35H63C64.1046 35 65 34.1046 65 33V19C65 17.8954 64.1046 17 63 17L49 17ZM59.401 24.3432C59.401 24.3432 58.428 27.2821 58.3485 27.5248C58.1035 25.6829 57.8561 23.8413 57.6065 22C55.9485 22 55.062 23.1365 54.5935 24.336L53.311 27.5321C53.3035 27.3028 53.131 24.3707 53.131 24.3707C53.029 22.901 51.631 22.0063 50.5 22.0063L51.8695 30C53.6065 29.9928 54.543 28.8631 55.0335 27.6635C55.0335 27.6635 56.0785 25.0641 56.1215 24.9461C56.129 25.0569 56.8715 29.9995 56.8715 29.9995C58.6155 29.9995 59.5525 28.9391 60.0565 27.7815L62.5 22.0067C60.7775 22.0067 59.8695 23.1369 59.401 24.3432Z" fill="#4353FF"/>
<path fill-rule="evenodd" clip-rule="evenodd" d="M15 64.381H21.5V70.5715L15 64.381Z" fill="#0055FF"/>
<path d="M21.5 58.1905H15L15 64.3809H28L21.5 58.1905Z" fill="#00AAFF"/>
<path d="M15 52L21.5 58.1905H28V52H15Z" fill="#88DDFF"/>
<path d="M45.1246 61.2858C45.1246 64.2085 46.8246 66.7258 49.2831 67.9223L45.7654 58.2846C45.343 59.2288 45.1246 60.2514 45.1246 61.2858ZM52.5 68.6611C53.3565 68.6611 54.1804 68.5108 54.9519 68.2427L54.8996 68.1446L52.6308 61.9331L50.4208 68.3604C51.0746 68.5565 51.7742 68.6611 52.5 68.6611ZM53.5135 57.8269L56.1811 65.7581L56.92 63.2996C57.2339 62.2796 57.4758 61.5473 57.4758 60.9131C57.4758 59.9977 57.1489 59.37 56.8742 58.8861C56.495 58.2715 56.1485 57.755 56.1485 57.1535C56.1485 56.4735 56.6585 55.8458 57.3908 55.8458H57.4823C56.1233 54.5982 54.3448 53.9073 52.5 53.9104C51.2785 53.9102 50.0761 54.2136 49.001 54.7934C47.9258 55.3732 47.0117 56.2111 46.3408 57.2319L46.8115 57.245C47.5831 57.245 48.7731 57.1469 48.7731 57.1469C49.1785 57.1273 49.2242 57.7092 48.8254 57.755C48.8254 57.755 48.4265 57.8073 47.9754 57.8269L50.6692 65.8169L52.2842 60.9785L51.1335 57.8269C50.8757 57.8127 50.6184 57.7909 50.3619 57.7615C49.9631 57.7354 50.0089 57.1273 50.4077 57.1469C50.4077 57.1469 51.6239 57.245 52.3496 57.245C53.1211 57.245 54.3111 57.1469 54.3111 57.1469C54.71 57.1273 54.7623 57.7092 54.3635 57.755C54.3635 57.755 53.9646 57.8008 53.5135 57.8269ZM56.2073 67.6608C57.3231 67.012 58.249 66.0818 58.8927 64.9631C59.5364 63.8444 59.8752 62.5764 59.8754 61.2858C59.8754 60.0042 59.5485 58.8011 58.9731 57.7485C59.0899 58.9066 58.9146 60.0756 58.4631 61.1485L56.2073 67.6608ZM52.5 69.7858C50.2457 69.7858 48.0837 68.8902 46.4896 67.2962C44.8955 65.7021 44 63.5401 44 61.2858C44 59.0314 44.8955 56.8694 46.4896 55.2754C48.0837 53.6813 50.2457 52.7858 52.5 52.7858C54.7543 52.7858 56.9163 53.6813 58.5104 55.2754C60.1045 56.8694 61 59.0314 61 61.2858C61 63.5401 60.1045 65.7021 58.5104 67.2962C56.9163 68.8902 54.7543 69.7858 52.5 69.7858Z" fill="#126FC2"/>
<defs>
<clipPath id="clip0_0_323">
<rect width="20" height="20" fill="white" transform="translate(11 16)"/>
</clipPath>
</defs>
</svg>
